<?xml version="1.0" encoding="UTF-8" standalone="no"?>
<svg
   data-name="Слой 1"
   id="Слой_1"
   viewBox="0 0 491.39551 128.22711"
   version="1.1"
   sodipodi:docname="sportcar-icon-original.svg"
   width="491.39551"
   height="128.22711"
   inkscape:version="1.2.2 (732a01da63, 2022-12-09)"
   xmlns:inkscape="http://www.inkscape.org/namespaces/inkscape"
   xmlns:sodipodi="http://sodipodi.sourceforge.net/DTD/sodipodi-0.dtd"
   xmlns="http://www.w3.org/2000/svg"
   xmlns:svg="http://www.w3.org/2000/svg">
  <sodipodi:namedview
     id="namedview73"
     pagecolor="#ffffff"
     bordercolor="#000000"
     borderopacity="0.25"
     inkscape:showpageshadow="2"
     inkscape:pageopacity="0.0"
     inkscape:pagecheckerboard="0"
     inkscape:deskcolor="#d1d1d1"
     showgrid="false"
     inkscape:zoom="1.3037281"
     inkscape:cx="209.39949"
     inkscape:cy="-1.1505466"
     inkscape:window-width="2240"
     inkscape:window-height="1311"
     inkscape:window-x="-9"
     inkscape:window-y="-9"
     inkscape:window-maximized="1"
     inkscape:current-layer="Слой_1" />
  <defs
     id="defs4">
    <style
       id="style2">.cls-1{fill:#eb1c24;}.cls-2{fill:#faec21;}.cls-3{fill:#666;}.cls-4{fill:#414042;}.cls-5{fill:#4d4d4d;}.cls-6{fill:gray;}.cls-7{fill:#333;}.cls-8{fill:#3fa7f3;}.cls-9{fill:#7c151d;}</style>
  </defs>
  <title
     id="title6" />
  <path
     class="cls-1"
     d="m 42.684444,108.95711 a 19.08,19.08 0 0 1 -15,-4 c -7.25,-5.750002 -15.5,-16.250002 -17,-22.000002 a 37.84,37.84 0 0 1 -1.4999996,-8.25 l 1.9999996,-3.25 c 0,0 2.75,-12.5 3.75,-14.75 1,-2.25 9,-16.25 11,-18.5 2,-2.25 4,-3.5 11.75,-5 a 177.22,177.22 0 0 1 22.75,-3 c 7.75,-0.5 31.8,-0.69 65.499996,2.25 36,3.15 51,5.75 88.49,6.38 79,1.33 125.51,1.87 133.51,0.87 8,-1 44.5,2.25 51,4.75 6.5,2.5 33.5,6.75 42.5,12.25 9,5.5 18.75,11.5 21.5,18.5 a 27.47,27.47 0 0 1 1,18.25 c -1.5,5.17 -3.84,12.000002 -8.25,14.750002 a 21.68,21.68 0 0 1 -10.09,2.75 l -27.41,1.92 c 0,0 19.58,-60.500002 -37.42,-61.500002 -57,-1 -35.33,65.000002 -35.33,65.000002 0,0 -160.67,-1 -168.67,0 -8,1 -56.33,-0.34 -58.67,0 -2.34,0.34 -3.66,0.37 -3.66,0.37 0,0 19.29,-47.200002 -9.67,-62.000002 -28.329996,-14.53 -55.329996,-4.33 -63.999996,16 -8.67,20.33 1.92,38.210002 1.92,38.210002 z"
     id="path8" />
  <path
     class="cls-2"
     d="m 418.14444,47.367108 c 0,0 19.29,18.93 26.79,22.43 7.5,3.5 22,4.5 22,4.5 a 44.83,44.83 0 0 0 -18.57,-16.7 c -12.31,-5.63 -30.22,-10.23 -30.22,-10.23 z"
     id="path10" />
  <circle
     class="cls-3"
     cx="80.094444"
     cy="89.717102"
     r="19.700001"
     id="circle12" />
  <circle
     class="cls-3"
     cx="381.73447"
     cy="89.717102"
     r="19.700001"
     id="circle14" />
  <path
     class="cls-4"
     d="m 381.73444,52.027108 a 36.7,36.7 0 1 0 36.7,36.7 36.7,36.7 0 0 0 -36.7,-36.7 z m 0,67.400002 a 30.7,30.7 0 1 1 30.7,-30.700002 30.7,30.7 0 0 1 -30.7,30.700002 z"
     id="path16" />
  <path
     class="cls-4"
     d="m 80.094444,52.027108 a 36.7,36.7 0 1 0 36.699996,36.7 36.7,36.7 0 0 0 -36.699996,-36.7 z m 0,67.400002 A 30.7,30.7 0 1 1 110.79444,88.727108 30.71,30.71 0 0 1 80.094444,119.42711 Z"
     id="path18" />
  <path
     class="cls-5"
     d="m 485.45444,99.717108 c -1.86,-5.55 -15.46,-7.33 -21,-7.83 -0.14,0.71 -0.32,1.4 -0.51,2.08 -1.5,5.17 -3.84,12.000002 -8.25,14.750002 a 21.68,21.68 0 0 1 -10.09,2.75 l -27.41,1.92 a 79.77,79.77 0 0 0 3,-15.690002 h -0.24 l -3.47,19.530002 h 63.33 c 0,0 6.98,-10.51 4.64,-17.510002 z"
     id="path20" />
  <path
     class="cls-3"
     d="m 481.02444,117.76711 h -64.19 l 0.68,-3.84 v 0 l 0.09,-0.27 2.92,-16.370002 1.21,-0.18 -0.06,0.63 a 82.59,82.59 0 0 1 -2.77,15.090002 l 26.7,-1.87 a 21.26,21.26 0 0 0 9.85,-2.67 c 4.15,-2.59 6.47,-9.090002 8,-14.470002 0.19,-0.65 0.36,-1.34 0.51,-2 l 0.09,-0.43 h 0.44 c 7.2,0.64 19.56,2.56 21.43,8.16 v 0 c 2.4,7.150002 -4.46,17.550002 -4.75,18.000002 z m -63,-1 h 62.46 c 1,-1.55 6.55,-10.75 4.49,-16.890002 v 0 c -1.75,-5.23 -15.31,-7 -20.13,-7.45 -0.13,0.58 -0.28,1.14 -0.43,1.68 -1.72,5.89 -4.06,12.290002 -8.47,15.000002 a 22,22 0 0 1 -10.35,2.82 l -27,1.89 z"
     id="path22" />
  <path
     class="cls-5"
     d="m 13.674444,91.887108 c 0,0 -11.7399996,8.710002 -12.73999956,15.190002 -1,6.48 0,10.19 0,10.19 H 44.934444 l -2.25,-7.94 c 0,0 -10.27,0.27 -15,-4 -4.73,-4.27 -14.01,-13.440002 -14.01,-13.440002 z"
     id="path24" />
  <path
     class="cls-3"
     d="M 45.594444,117.76711 H 0.54444444 l -0.1,-0.37 c 0,-0.16 -1,-3.87 0,-10.4 C 1.4444444,100.46711 12.904444,91.847108 13.384444,91.487108 l 0.35,-0.25 0.3,0.3 c 0.1,0.09 9.32,9.200002 14,13.420002 4.68,4.22 14.55,3.87 14.65,3.87 h 0.39 z m -44.2599996,-1 H 44.254444 l -2,-6.93 c -1.95,0 -10.61,-0.21 -15,-4.14 -4.39,-3.93 -12,-11.520002 -13.62,-13.100002 -1.92,1.47 -11.3499996,9.000002 -12.2099996,14.600002 a 29,29 0 0 0 -0.09,9.57 z"
     id="path26" />
  <path
     class="cls-5"
     d="m 143.03444,13.187108 -89.939996,1.09 -10.66,8.32 15.5,7.49 h 36.16 c 0,0 0,-1.79 24.589996,-9.69 18.71,-6.02 24.35,-7.21 24.35,-7.21 z"
     id="path28" />
  <path
     class="cls-3"
     d="m 94.584444,30.597108 h -36.87 l -16.23,-7.83 11.44,-8.94 h 0.17 l 89.929996,-1.09 0.11,1 c 0,0 -5.85,1.26 -24.3,7.21 -20.859996,6.72 -23.839996,8.95 -24.239996,9.37 z m -36.54,-1 h 35.83 c 2.12,-2.17 16.079996,-6.9 24.649996,-9.66 10.36,-3.34 16.75,-5.2 20.37,-6.2 l -85.619996,1 -9.9,7.73 z"
     id="path30" />
  <path
     class="cls-5"
     d="M 20.434444,3.1571077 V 22.527108 l 22,0.08 10.66,-8.33 c 0,0 -6.91,-9.2500003 -9.66,-10.3700003 -2.75,-1.12 -23,-0.75 -23,-0.75 z"
     id="path32" />
  <path
     class="cls-3"
     d="m 42.604444,23.117108 -22.67,-0.09 V 2.6671077 h 0.49 c 0.83,0 20.38,-0.37 23.2,0.78 2.82,1.15 9.63,10.1500003 9.87,10.5300003 l 0.3,0.39 z m -21.67,-1.09 21.32,0.08 10.15,-7.92 c -2.12,-2.78 -7.12,-9.0000003 -9.16,-9.8200003 -2.04,-0.82 -16.37,-0.82 -22.31,-0.72 z"
     id="path34" />
  <path
     class="cls-6"
     d="m 88.094444,28.417108 c 0,0 52.669996,-26.0000003 128.999996,-28.32000028 76.33,-2.32000002 140.66,37.70000028 140.66,37.70000028 0,0 -57.66,1.71 -129.66,0 -72,-1.71 -139.999996,-9.38 -139.999996,-9.38 z"
     id="path36" />
  <path
     class="cls-7"
     d="m 116.16444,118.21711 0.88,-2.14 c 0.18,-0.46 18.43,-46.100002 -9,-60.150002 -13.939996,-7.14 -28.459996,-8.61 -40.879996,-4.11 a 35.48,35.48 0 0 0 -21,19.37 c -8.27,19.41 1.73,36.720002 1.83,36.900002 l 1,1.77 -2,0.45 a 20.47,20.47 0 0 1 -16.27,-4.29 c -7.77,-6.160002 -16,-16.810002 -17.52,-22.790002 a 38.6,38.6 0 0 1 -1.52,-8.63 v -0.42 l 2.09,-3.4 c 0.46,-2.1 2.8,-12.58 3.78,-14.79 0.98,-2.21 9.07,-16.39 11.25,-18.89 2.18,-2.5 4.61,-3.93 12.59,-5.47 a 180.05,180.05 0 0 1 22.94,-3 c 7.93,-0.51 31.89,-0.7 65.729996,2.26 9.69,0.84 18,1.66 25.35,2.39 20.71,2 35.68,3.52 63,4 76.34,1.29 125.27,1.88 133.29,0.88 7.78,-1 44.74,2.15 51.72,4.84 a 128.68,128.68 0 0 0 12.63,3.21 c 10.77,2.39 24.12,5.39 30.2,9.11 9,5.49 19.16,11.71 22.11,19.23 a 29.22,29.22 0 0 1 1.05,19.22 c -1.77,6.07 -4.2,12.680002 -8.9,15.600002 a 23,23 0 0 1 -10.82,3 l -29.58,2.07 0.68,-2.11 c 0.09,-0.29 8.95,-28.360002 -3.45,-45.710002 -6.37,-8.91 -17.33,-13.57 -32.57,-13.83 -14.42,-0.27 -24.82,3.87 -31,12.25 -13.37,18.12 -3,50.460002 -2.87,50.780002 l 0.65,2 h -2.08 c -1.61,0 -160.66,-1 -168.47,0 -5.19,0.64 -26.56,0.34 -42.16,0.11 -8,-0.11 -15.63,-0.22 -16.49,-0.12 a 37.9,37.9 0 0 1 -3.82,0.39 z m 8.56,-3.51 c 2.69,0 7.29,0.06 14.12,0.16 15.51,0.23 36.75,0.53 41.73,-0.09 7.61,-0.95 147.35,-0.14 166.83,0 -2.14,-7.57 -8.54,-34.630002 3.91,-51.510002 6.79,-9.21 18.06,-13.75 33.48,-13.47 16.24,0.28 28,5.36 35,15.1 5.51,7.72 7.92,18.55 7,31.31 a 84.31,84.31 0 0 1 -2.54,14.910002 l 25.38,-1.77 a 20.25,20.25 0 0 0 9.29,-2.52 c 3.86,-2.41 6.09,-8.690002 7.61,-13.900002 a 26,26 0 0 0 -1,-17.28 c -2.59,-6.59 -12.31,-12.53 -20.89,-17.77 -5.61,-3.43 -19.26,-6.53 -29.22,-8.79 a 127.77,127.77 0 0 1 -13,-3.34 c -6,-2.32 -42.21,-5.66 -50.28,-4.66 -8.23,1 -55.26,0.46 -133.71,-0.86 -27.49,-0.46 -43.29,-2 -63.29,-4 -7.33,-0.72 -15.64,-1.54 -25.32,-2.39 -33.649996,-2.93 -57.409996,-2.75 -65.269996,-2.24 a 176,176 0 0 0 -22.56,3 c -7.76,1.51 -9.3,2.71 -10.91,4.53 -1.86,2.08 -9.75,15.85 -10.75,18.11 -0.69,1.55 -2.57,9.5 -3.66,14.46 v 0.25 l -1.89,3.07 a 42.86,42.86 0 0 0 1.43,7.48 c 1.37,5.27 9.38,15.58 16.48,21.210002 a 17.89,17.89 0 0 0 11.65,3.89 c -2.54,-5.35 -8.22,-20.540002 -1,-37.580002 a 38.49,38.49 0 0 1 22.79,-21 c 13.21,-4.77 28.58,-3.26 43.269996,4.28 12.43,6.37 18.14,19.53 16.51,38.05 a 99.86,99.86 0 0 1 -5.28,23.620002 c 0.36,0 0.77,-0.09 1.21,-0.16 0.44,-0.07 1.31,-0.1 2.88,-0.1 z"
     id="path38" />
  <path
     class="cls-8"
     d="m 197.44444,2.7171077 c -2,0.19 -32.51,5.68 -39,15.1800003 a 75.67,75.67 0 0 0 -9,17.15 c 0,0 99.5,5.11 143.51,4.81 44.01,-0.3 66.82,-0.75 66.82,-0.75 0,0 -45.65,-26.09 -88.24,-33.1500003 -42.59,-7.06 -74.09,-3.24 -74.09,-3.24 z"
     id="path40" />
  <path
     class="cls-7"
     d="m 485.56444,118.28711 h -65.93 l 0.67,-3.75 h -0.23 l 0.52,-1.61 3,-17.000002 3.18,-0.47 -0.17,1.9 a 83.87,83.87 0 0 1 -2.42,13.900002 l 25.38,-1.77 a 20.25,20.25 0 0 0 9.29,-2.52 c 3.86,-2.41 6.09,-8.690002 7.61,-13.900002 0.18,-0.63 0.35,-1.29 0.49,-2 l 0.27,-1.3 1.33,0.12 c 7.44,0.67 20.23,2.7 22.29,8.84 v 0 c 2.55,7.610002 -4.56,18.400002 -4.87,18.860002 z m -62.34,-3 h 60.71 c 1.42,-2.34 5.86,-10.29 4.1,-15.570002 v 0 c -1,-3.08 -8,-5.61 -18.42,-6.69 l -0.24,0.88 c -1.77,6.07 -4.2,12.680002 -8.9,15.600002 a 23,23 0 0 1 -10.82,3 l -26.26,1.84 z"
     id="path42" />
  <path
     class="cls-7"
     d="m 302.50444,41.597108 c -19.22,0 -41.58,-0.19 -65.44,-0.75 -71.25,-1.69 -139.449996,-9.32 -140.139996,-9.4 l -5.08,-0.57 4.59,-2.26 c 0.53,-0.26 53.829996,-26.1600003 129.619996,-28.48000028 76,-2.31000002 140.84,37.53000028 141.49,37.93000028 l 4.22,2.63 -5,0.14 c -0.35,-0.02 -26.11,0.76 -64.26,0.76 z m -199.73,-12.58 c 17.62,1.83 74.94,7.38 134.36,8.79 58.69,1.38 108.33,0.49 124.24,0.13 -16,-8.85 -71.78,-36.7800003 -135.23,-34.8400003 -61.89,1.89 -108.51,19.5800003 -123.37,25.9200003 z"
     id="path44" />
  <path
     class="cls-7"
     d="m 98.554444,31.417108 h -38 l -18,-8.69 13,-10.12 90.439996,-1.1 0.33,3 c -0.05,0 -5.85,1.28 -24.2,7.19 -18,5.8 -22.509996,8.21 -23.569996,8.92 z m -37.28,-3 h 35.23 c 1.83,-1.44 7.449996,-4.06 24.719996,-9.62 5.49,-1.77 9.86,-3.12 13.3,-4.15 l -77.899996,0.94 -8.37,6.54 z"
     id="path46" />
  <path
     class="cls-9"
     d="m 19.864444,45.417108 c 0,0 24.57,-10.88 59.07,-8.88 34.499996,2 80.499996,16 169.999996,27 80.2,9.86 81.5,35 81.5,35 h -189.4 c 0,0 13.9,-29.5 -3.6,-41 -17.5,-11.5 -42.519996,-24.07 -83.999996,-14.5 -26,6 -40.76,17.2 -40.76,17.2 z"
     id="path48" />
  <path
     class="cls-7"
     d="m 45.944444,23.927108 -24,-0.09 V 1.4971077 h 1.47 c 3.43,-0.07 20.7,-0.33 23.59,0.86 2.89,1.19 9.1,9.2400003 10.25,10.8400003 l 0.88,1.18 z m -21,-3.07 20,0.07 9.09,-7.1 c -2.78,-3.6 -6.68,-8.1200003 -8.14,-8.7200003 -1.46,-0.6 -11.53,-0.8 -20.93,-0.66 z"
     id="path50" />
  <path
     class="cls-7"
     d="m 337.00444,100.59711 h -193.33 l 1,-2.140002 c 0.14,-0.28 13.14,-28.46 -3.07,-39.11 -18.6,-12.22 -42.999996,-23.48 -82.839996,-14.29 -25.34,5.85 -40,16.82 -40.18,16.93 l -5,3.77 10.17,-20.94 0.5,-0.22 c 0.25,-0.11 25.29,-11 59.76,-9 16.149996,0.94 35.079996,4.54 58.999996,9.1 28.18,5.36 63.25,12 111.06,17.91 80.53,9.9 82.76,35.33 82.81,36.41 z m -188.7,-3.000002 h 185.19 c -2.1,-5.5 -14,-23.93 -79.75,-32 -47.91,-5.89 -83,-12.57 -111.25,-17.94 -11.13,-2.12 -21.17,-4 -30.33,-5.56 12.26,3.42 22.3,9 31.09,14.76 7.68,5 10.8,14.13 9,26.28 a 65.61,65.61 0 0 1 -3.95,14.46 z m -122.339996,-50.46 -4.56,9.4 a 126.94,126.94 0 0 1 36.69,-14.4 127.52,127.52 0 0 1 27.2,-3.45 l -1.45,-0.09 c -31.07,-1.8 -54.24,7.05 -57.88,8.54 z"
     id="path52" />
  <path
     class="cls-7"
     d="m 296.13444,41.597108 c -45.25,0 -138.82,-4.79 -139.79,-4.84 l -2,-0.1 0.61,-1.86 a 76.25,76.25 0 0 1 9.2,-17.53 c 7.1,-10.3700003 38.79,-15.6700003 40.1,-15.8400003 v 0 c 0.32,0 32.19,-3.76 74.5,3.25 42.31,7.0100003 88.27,33.0600003 88.73,33.3200003 l 4.71,2.69 -5.42,0.12 c -0.23,0 -23.33,0.46 -66.84,0.75 z m -137.58,-7.75 c 14.47,0.72 101.36,5 141.37,4.71 31.11,-0.21 51.78,-0.5 61.1,-0.65 -12.95,-6.84 -49,-24.68 -82.75,-30.2700003 -41.89,-6.93999998 -73.33,-3.27 -73.65,-3.24 v 0 c -2.42,0.22 -31.92,5.7700003 -37.92,14.5400003 a 80.63,80.63 0 0 0 -8.15,14.91 z"
     id="path54" />
  <path
     class="cls-7"
     d="m 469.61444,76.787108 -2.79,-0.19 c -0.6,0 -14.86,-1.06 -22.53,-4.64 -7.67,-3.58 -26.41,-21.94 -27.2,-22.72 l -4,-3.92 5.41,1.39 c 0.18,0.05 18.19,4.7 30.47,10.33 a 45.84,45.84 0 0 1 19.28,17.32 z m -46.13,-25.59 c 6.07,5.73 17,15.68 22.08,18 5.08,2.32 13.76,3.58 18.37,4.07 a 43.38,43.38 0 0 0 -16.2,-13.55 191.73,191.73 0 0 0 -24.25,-8.52 z"
     id="path56" />
  <path
     class="cls-7"
     d="m 179.02444,48.597108 h -0.28 l -24.9,-2 a 3.5107869,3.5107869 0 1 1 0.55,-7 l 24.86,2 a 3.51,3.51 0 0 1 -0.27,7 z m -24.9,-6 a 0.54,0.54 0 0 0 -0.52,0.47 0.49,0.49 0 0 0 0.13,0.37 0.48,0.48 0 0 0 0.34,0.18 l 24.9,2 a 0.5,0.5 0 0 0 0.43,-0.84 0.52,0.52 0 0 0 -0.35,-0.18 l -24.89,-2 z"
     id="path58" />
  <path
     class="cls-7"
     d="M 83.094444,111.22711 A 21.2,21.2 0 1 1 104.29444,90.027108 21.22,21.22 0 0 1 83.094444,111.22711 Z m 0,-39.390002 a 18.2,18.2 0 1 0 18.159996,18.19 18.22,18.22 0 0 0 -18.159996,-18.19 z"
     id="path60" />
  <path
     class="cls-7"
     d="m 384.73444,111.22711 a 21.2,21.2 0 1 1 21.2,-21.200002 21.22,21.22 0 0 1 -21.2,21.200002 z m 0,-39.390002 a 18.2,18.2 0 1 0 18.2,18.19 18.21,18.21 0 0 0 -18.2,-18.19 z"
     id="path62" />
  <path
     class="cls-7"
     d="M 50.914444,118.28711 H 3.7844444 l -0.3,-1.11 c -0.05,-0.16 -1.07,-4.07 0,-10.81 1.07,-6.910002 12.0899996,-15.230002 13.3399996,-16.160002 l 1,-0.77 0.91,0.91 c 0.1,0.09 9.31,9.18 14,13.390002 3.52,3.17 11.26,3.69 14,3.61 h 1.16 z m -44.7299996,-3 H 46.944444 l -1.4,-4.94 c -3,-0.07 -10.7,-0.62 -14.87,-4.39 -3.82,-3.45 -10.64,-10.130002 -13.12,-12.560002 -3.61,2.85 -10.4699996,9.060002 -11.1399996,13.430002 a 29.92,29.92 0 0 0 -0.23,8.46 z"
     id="path64" />
  <path
     class="cls-7"
     d="m 116.39444,118.14711 4.8,-15.55 h 226.61 l 3.51,15.16 z m 7,-12.55 -2.94,9.54 227.08,-0.37 -2.12,-9.17 z"
     id="path66" />
  <path
     class="cls-7"
     d="m 384.73444,128.22711 a 38.2,38.2 0 1 1 38.2,-38.200002 38.23,38.23 0 0 1 -38.2,38.200002 z m 0,-73.390002 a 35.2,35.2 0 1 0 35.2,35.19 35.24,35.24 0 0 0 -35.2,-35.19 z m 0,67.390002 a 32.2,32.2 0 1 1 32.2,-32.200002 32.23,32.23 0 0 1 -32.2,32.200002 z m 0,-61.390002 a 29.2,29.2 0 1 0 29.2,29.19 29.23,29.23 0 0 0 -29.2,-29.19 z"
     id="path68" />
  <path
     class="cls-7"
     d="M 83.094444,128.22711 A 38.2,38.2 0 1 1 121.29444,90.027108 38.24,38.24 0 0 1 83.094444,128.22711 Z m 0,-73.390002 a 35.2,35.2 0 1 0 35.159996,35.19 35.24,35.24 0 0 0 -35.159996,-35.19 z m 0,67.390002 A 32.2,32.2 0 1 1 115.29444,90.027108 32.24,32.24 0 0 1 83.094444,122.22711 Z m 0,-61.390002 a 29.2,29.2 0 1 0 29.159996,29.19 29.23,29.23 0 0 0 -29.159996,-29.19 z"
     id="path70" />
</svg>
